<mxfile host="Electron" agent="Mozilla/5.0 (Windows NT 10.0; Win64; x64) AppleWebKit/537.36 (KHTML, like Gecko) draw.io/26.0.4 Chrome/128.0.6613.186 Electron/32.2.5 Safari/537.36" version="26.0.4">
  <diagram name="Página-1" id="q5sJ7SMmnI5SE294cbQs">
    <mxGraphModel dx="3804" dy="852" grid="1" gridSize="10" guides="1" tooltips="1" connect="1" arrows="1" fold="1" page="1" pageScale="1" pageWidth="827" pageHeight="1169" math="0" shadow="0">
      <root>
        <mxCell id="0" />
        <mxCell id="1" parent="0" />
        <mxCell id="HwzYQzNSdAflET0h8osi-17" value="3.1.1.2. Indicadores economicos estudiados" style="rounded=1;whiteSpace=wrap;html=1;fontStyle=1;strokeColor=#000000;fillColor=#FF99FF;" parent="1" vertex="1">
          <mxGeometry x="298" y="470" width="180" height="40" as="geometry" />
        </mxCell>
        <mxCell id="BgfKHeFuY2_l_r2EsFXZ-92" style="edgeStyle=orthogonalEdgeStyle;rounded=0;orthogonalLoop=1;jettySize=auto;html=1;entryX=0.5;entryY=0;entryDx=0;entryDy=0;" edge="1" parent="1" source="HwzYQzNSdAflET0h8osi-15" target="BgfKHeFuY2_l_r2EsFXZ-89">
          <mxGeometry relative="1" as="geometry" />
        </mxCell>
        <mxCell id="HwzYQzNSdAflET0h8osi-15" value="3.1. Oferta comercial definida" style="rounded=1;whiteSpace=wrap;html=1;fontStyle=1;strokeColor=#000000;fillColor=#FF99FF;" parent="1" vertex="1">
          <mxGeometry x="195.5" y="310" width="180" height="40" as="geometry" />
        </mxCell>
        <mxCell id="BgfKHeFuY2_l_r2EsFXZ-119" style="edgeStyle=orthogonalEdgeStyle;rounded=0;orthogonalLoop=1;jettySize=auto;html=1;entryX=0.5;entryY=0;entryDx=0;entryDy=0;" edge="1" parent="1" source="zI43d2FHKdrEC87unYx5-30" target="HwzYQzNSdAflET0h8osi-15">
          <mxGeometry relative="1" as="geometry" />
        </mxCell>
        <mxCell id="zI43d2FHKdrEC87unYx5-30" value="3. Evaluación económica determinada" style="rounded=1;whiteSpace=wrap;html=1;fillColor=#FFFF33;strokeColor=#000000;fontStyle=1" parent="1" vertex="1">
          <mxGeometry x="208" y="230" width="155" height="40" as="geometry" />
        </mxCell>
        <mxCell id="K9VHAz8Z8y00O2l8GgqR-8" value="3.1.1.1. Presupuesto reportado" style="rounded=1;whiteSpace=wrap;html=1;fontStyle=1;strokeColor=#000000;fillColor=#FF99FF;" parent="1" vertex="1">
          <mxGeometry x="138" y="470" width="130" height="40" as="geometry" />
        </mxCell>
        <mxCell id="BgfKHeFuY2_l_r2EsFXZ-85" style="edgeStyle=orthogonalEdgeStyle;rounded=0;orthogonalLoop=1;jettySize=auto;html=1;entryX=0.5;entryY=0;entryDx=0;entryDy=0;" edge="1" parent="1" source="7QkryRCTY_poe_iIpccH-20" target="BgfKHeFuY2_l_r2EsFXZ-84">
          <mxGeometry relative="1" as="geometry" />
        </mxCell>
        <mxCell id="7QkryRCTY_poe_iIpccH-20" value="1. Planeación del proyecto desarrollada" style="rounded=1;whiteSpace=wrap;html=1;fillColor=#FFFF33;strokeColor=#000000;fontStyle=1;arcSize=24;" parent="1" vertex="1">
          <mxGeometry x="-2332.75" y="230" width="173.5" height="40" as="geometry" />
        </mxCell>
        <mxCell id="7QkryRCTY_poe_iIpccH-23" value="1.1.1. EDT realizado" style="rounded=1;whiteSpace=wrap;html=1;fontStyle=1;strokeColor=#000000;fillColor=#FF99FF;" parent="1" vertex="1">
          <mxGeometry x="-2460" y="390" width="108" height="40" as="geometry" />
        </mxCell>
        <mxCell id="7QkryRCTY_poe_iIpccH-25" value="1.1.3. Cronograma planeado" style="rounded=1;whiteSpace=wrap;html=1;fontStyle=1;strokeColor=#000000;fillColor=#FF99FF;" parent="1" vertex="1">
          <mxGeometry x="-2130" y="390" width="108" height="40" as="geometry" />
        </mxCell>
        <mxCell id="BgfKHeFuY2_l_r2EsFXZ-107" style="edgeStyle=orthogonalEdgeStyle;rounded=0;orthogonalLoop=1;jettySize=auto;html=1;entryX=0.5;entryY=0;entryDx=0;entryDy=0;" edge="1" parent="1" source="BgfKHeFuY2_l_r2EsFXZ-1" target="BgfKHeFuY2_l_r2EsFXZ-9">
          <mxGeometry relative="1" as="geometry" />
        </mxCell>
        <mxCell id="BgfKHeFuY2_l_r2EsFXZ-113" style="edgeStyle=orthogonalEdgeStyle;rounded=0;orthogonalLoop=1;jettySize=auto;html=1;entryX=0.5;entryY=0;entryDx=0;entryDy=0;" edge="1" parent="1" source="BgfKHeFuY2_l_r2EsFXZ-1" target="7QkryRCTY_poe_iIpccH-20">
          <mxGeometry relative="1" as="geometry">
            <Array as="points">
              <mxPoint x="-943" y="210" />
              <mxPoint x="-2246" y="210" />
            </Array>
          </mxGeometry>
        </mxCell>
        <mxCell id="BgfKHeFuY2_l_r2EsFXZ-114" style="edgeStyle=orthogonalEdgeStyle;rounded=0;orthogonalLoop=1;jettySize=auto;html=1;entryX=0.5;entryY=0;entryDx=0;entryDy=0;" edge="1" parent="1" source="BgfKHeFuY2_l_r2EsFXZ-1" target="zI43d2FHKdrEC87unYx5-30">
          <mxGeometry relative="1" as="geometry">
            <Array as="points">
              <mxPoint x="-943" y="210" />
              <mxPoint x="286" y="210" />
              <mxPoint x="286" y="230" />
            </Array>
          </mxGeometry>
        </mxCell>
        <mxCell id="BgfKHeFuY2_l_r2EsFXZ-1" value="Propuesta de planta de juguetes completa" style="rounded=1;whiteSpace=wrap;html=1;fillColor=#FFFF33;strokeColor=#000000;fontStyle=1;labelBorderColor=none;arcSize=22;fontSize=22;" vertex="1" parent="1">
          <mxGeometry x="-1088" y="110" width="290" height="80" as="geometry" />
        </mxCell>
        <mxCell id="BgfKHeFuY2_l_r2EsFXZ-30" style="edgeStyle=orthogonalEdgeStyle;rounded=0;orthogonalLoop=1;jettySize=auto;html=1;entryX=0.5;entryY=0;entryDx=0;entryDy=0;" edge="1" parent="1" source="BgfKHeFuY2_l_r2EsFXZ-3" target="BgfKHeFuY2_l_r2EsFXZ-5">
          <mxGeometry relative="1" as="geometry" />
        </mxCell>
        <mxCell id="BgfKHeFuY2_l_r2EsFXZ-3" value="2.2. Indicadores de producción obtenidos" style="rounded=1;whiteSpace=wrap;html=1;fillColor=#FFFF33;strokeColor=#000000;fontStyle=1;labelBorderColor=none;arcSize=22;" vertex="1" parent="1">
          <mxGeometry x="-1498" y="310" width="150" height="40" as="geometry" />
        </mxCell>
        <mxCell id="BgfKHeFuY2_l_r2EsFXZ-32" style="edgeStyle=orthogonalEdgeStyle;rounded=0;orthogonalLoop=1;jettySize=auto;html=1;entryX=0.5;entryY=0;entryDx=0;entryDy=0;" edge="1" parent="1" source="BgfKHeFuY2_l_r2EsFXZ-5" target="BgfKHeFuY2_l_r2EsFXZ-31">
          <mxGeometry relative="1" as="geometry" />
        </mxCell>
        <mxCell id="BgfKHeFuY2_l_r2EsFXZ-5" value="2.2.1. Simulación en Tecnomatix obtenida" style="rounded=1;whiteSpace=wrap;html=1;fontStyle=1;strokeColor=#000000;fillColor=#FF99FF;" vertex="1" parent="1">
          <mxGeometry x="-1548" y="390" width="250" height="40" as="geometry" />
        </mxCell>
        <mxCell id="BgfKHeFuY2_l_r2EsFXZ-115" style="edgeStyle=orthogonalEdgeStyle;rounded=0;orthogonalLoop=1;jettySize=auto;html=1;" edge="1" parent="1" source="BgfKHeFuY2_l_r2EsFXZ-9" target="BgfKHeFuY2_l_r2EsFXZ-15">
          <mxGeometry relative="1" as="geometry">
            <Array as="points">
              <mxPoint x="-943" y="290" />
              <mxPoint x="-1862" y="290" />
            </Array>
          </mxGeometry>
        </mxCell>
        <mxCell id="BgfKHeFuY2_l_r2EsFXZ-116" style="edgeStyle=orthogonalEdgeStyle;rounded=0;orthogonalLoop=1;jettySize=auto;html=1;entryX=0.5;entryY=0;entryDx=0;entryDy=0;" edge="1" parent="1" source="BgfKHeFuY2_l_r2EsFXZ-9" target="BgfKHeFuY2_l_r2EsFXZ-3">
          <mxGeometry relative="1" as="geometry">
            <Array as="points">
              <mxPoint x="-943" y="290" />
              <mxPoint x="-1423" y="290" />
            </Array>
          </mxGeometry>
        </mxCell>
        <mxCell id="BgfKHeFuY2_l_r2EsFXZ-117" style="edgeStyle=orthogonalEdgeStyle;rounded=0;orthogonalLoop=1;jettySize=auto;html=1;entryX=0.5;entryY=0;entryDx=0;entryDy=0;" edge="1" parent="1" source="BgfKHeFuY2_l_r2EsFXZ-9" target="BgfKHeFuY2_l_r2EsFXZ-13">
          <mxGeometry relative="1" as="geometry">
            <Array as="points">
              <mxPoint x="-943" y="290" />
              <mxPoint x="-559" y="290" />
            </Array>
          </mxGeometry>
        </mxCell>
        <mxCell id="BgfKHeFuY2_l_r2EsFXZ-9" value="2. Propuesta diseñada" style="rounded=1;whiteSpace=wrap;html=1;fillColor=#FFFF33;strokeColor=#000000;fontStyle=1;labelBorderColor=none;arcSize=22;" vertex="1" parent="1">
          <mxGeometry x="-1018" y="230" width="150" height="40" as="geometry" />
        </mxCell>
        <mxCell id="BgfKHeFuY2_l_r2EsFXZ-52" style="edgeStyle=orthogonalEdgeStyle;rounded=0;orthogonalLoop=1;jettySize=auto;html=1;entryX=0.5;entryY=0;entryDx=0;entryDy=0;" edge="1" parent="1" source="BgfKHeFuY2_l_r2EsFXZ-13" target="BgfKHeFuY2_l_r2EsFXZ-14">
          <mxGeometry relative="1" as="geometry" />
        </mxCell>
        <mxCell id="BgfKHeFuY2_l_r2EsFXZ-105" style="edgeStyle=orthogonalEdgeStyle;rounded=0;orthogonalLoop=1;jettySize=auto;html=1;entryX=0.5;entryY=0;entryDx=0;entryDy=0;" edge="1" parent="1" source="BgfKHeFuY2_l_r2EsFXZ-13" target="BgfKHeFuY2_l_r2EsFXZ-74">
          <mxGeometry relative="1" as="geometry">
            <Array as="points">
              <mxPoint x="-559" y="370" />
              <mxPoint x="-459" y="370" />
            </Array>
          </mxGeometry>
        </mxCell>
        <mxCell id="BgfKHeFuY2_l_r2EsFXZ-13" value="2.3. Siemens NX y STUDIO 5000 conectados" style="rounded=1;whiteSpace=wrap;html=1;fontStyle=1;strokeColor=#000000;fillColor=#FFFF00;" vertex="1" parent="1">
          <mxGeometry x="-684" y="310" width="250" height="40" as="geometry" />
        </mxCell>
        <mxCell id="BgfKHeFuY2_l_r2EsFXZ-43" style="edgeStyle=orthogonalEdgeStyle;rounded=0;orthogonalLoop=1;jettySize=auto;html=1;entryX=0.5;entryY=0;entryDx=0;entryDy=0;" edge="1" parent="1" source="BgfKHeFuY2_l_r2EsFXZ-14" target="BgfKHeFuY2_l_r2EsFXZ-38">
          <mxGeometry relative="1" as="geometry">
            <Array as="points">
              <mxPoint x="-818" y="450" />
              <mxPoint x="-967" y="450" />
            </Array>
          </mxGeometry>
        </mxCell>
        <mxCell id="BgfKHeFuY2_l_r2EsFXZ-44" style="edgeStyle=orthogonalEdgeStyle;rounded=0;orthogonalLoop=1;jettySize=auto;html=1;entryX=0.5;entryY=0;entryDx=0;entryDy=0;" edge="1" parent="1" source="BgfKHeFuY2_l_r2EsFXZ-14" target="BgfKHeFuY2_l_r2EsFXZ-17">
          <mxGeometry relative="1" as="geometry">
            <Array as="points">
              <mxPoint x="-818" y="450" />
              <mxPoint x="-679" y="450" />
              <mxPoint x="-679" y="470" />
            </Array>
          </mxGeometry>
        </mxCell>
        <mxCell id="BgfKHeFuY2_l_r2EsFXZ-14" value="2.3.1. Componentes involucrados en las rutinas SCADA, modelados y acondicionados en NX" style="rounded=1;whiteSpace=wrap;html=1;fontStyle=1;strokeColor=#000000;fillColor=#FF99FF;" vertex="1" parent="1">
          <mxGeometry x="-978" y="390" width="314" height="40" as="geometry" />
        </mxCell>
        <mxCell id="BgfKHeFuY2_l_r2EsFXZ-100" style="edgeStyle=orthogonalEdgeStyle;rounded=0;orthogonalLoop=1;jettySize=auto;html=1;entryX=0.5;entryY=0;entryDx=0;entryDy=0;" edge="1" parent="1" source="BgfKHeFuY2_l_r2EsFXZ-15" target="BgfKHeFuY2_l_r2EsFXZ-19">
          <mxGeometry relative="1" as="geometry" />
        </mxCell>
        <mxCell id="BgfKHeFuY2_l_r2EsFXZ-15" value="2.1 Linea de producción diseñada" style="rounded=1;whiteSpace=wrap;html=1;fillColor=#FFFF33;strokeColor=#000000;fontStyle=1;labelBorderColor=none;arcSize=22;" vertex="1" parent="1">
          <mxGeometry x="-1957" y="310" width="190" height="40" as="geometry" />
        </mxCell>
        <mxCell id="BgfKHeFuY2_l_r2EsFXZ-102" style="edgeStyle=orthogonalEdgeStyle;rounded=0;orthogonalLoop=1;jettySize=auto;html=1;entryX=0.5;entryY=0;entryDx=0;entryDy=0;" edge="1" parent="1" source="BgfKHeFuY2_l_r2EsFXZ-16" target="BgfKHeFuY2_l_r2EsFXZ-20">
          <mxGeometry relative="1" as="geometry" />
        </mxCell>
        <mxCell id="BgfKHeFuY2_l_r2EsFXZ-16" value="2.1.1. Lista de maquinaria requerida completada" style="rounded=1;whiteSpace=wrap;html=1;fontStyle=1;strokeColor=#000000;fillColor=#FF99FF;" vertex="1" parent="1">
          <mxGeometry x="-1987" y="470" width="250" height="40" as="geometry" />
        </mxCell>
        <mxCell id="BgfKHeFuY2_l_r2EsFXZ-42" style="edgeStyle=orthogonalEdgeStyle;rounded=0;orthogonalLoop=1;jettySize=auto;html=1;entryX=0.5;entryY=0;entryDx=0;entryDy=0;" edge="1" parent="1" source="BgfKHeFuY2_l_r2EsFXZ-17" target="BgfKHeFuY2_l_r2EsFXZ-41">
          <mxGeometry relative="1" as="geometry" />
        </mxCell>
        <mxCell id="BgfKHeFuY2_l_r2EsFXZ-17" value="&lt;div&gt;&lt;span style=&quot;background-color: transparent; color: light-dark(rgb(0, 0, 0), rgb(255, 255, 255));&quot;&gt;2.3.1.2.&amp;nbsp;&lt;/span&gt;&lt;span style=&quot;background-color: transparent; color: light-dark(rgb(0, 0, 0), rgb(255, 255, 255));&quot;&gt;Diagramas P&amp;amp;ID de las etapas elaborados&lt;/span&gt;&lt;br&gt;&lt;/div&gt;" style="rounded=1;whiteSpace=wrap;html=1;fontStyle=1;strokeColor=#000000;fillColor=#FF99FF;" vertex="1" parent="1">
          <mxGeometry x="-771" y="470" width="183" height="40" as="geometry" />
        </mxCell>
        <mxCell id="BgfKHeFuY2_l_r2EsFXZ-18" value="2.1.1.1.1. Proceso de producción investigado" style="rounded=1;whiteSpace=wrap;html=1;fontStyle=1;strokeColor=#000000;fillColor=#FF99FF;" vertex="1" parent="1">
          <mxGeometry x="-1954.5" y="630" width="185" height="40" as="geometry" />
        </mxCell>
        <mxCell id="BgfKHeFuY2_l_r2EsFXZ-101" style="edgeStyle=orthogonalEdgeStyle;rounded=0;orthogonalLoop=1;jettySize=auto;html=1;entryX=0.5;entryY=0;entryDx=0;entryDy=0;" edge="1" parent="1" source="BgfKHeFuY2_l_r2EsFXZ-19" target="BgfKHeFuY2_l_r2EsFXZ-16">
          <mxGeometry relative="1" as="geometry" />
        </mxCell>
        <mxCell id="BgfKHeFuY2_l_r2EsFXZ-19" value="2.1. Interacción entre los componentes establecida" style="rounded=1;whiteSpace=wrap;html=1;fontStyle=1;strokeColor=#000000;fillColor=#FF99FF;" vertex="1" parent="1">
          <mxGeometry x="-1987" y="390" width="250" height="40" as="geometry" />
        </mxCell>
        <mxCell id="BgfKHeFuY2_l_r2EsFXZ-21" style="edgeStyle=orthogonalEdgeStyle;rounded=0;orthogonalLoop=1;jettySize=auto;html=1;entryX=0.5;entryY=0;entryDx=0;entryDy=0;" edge="1" parent="1" source="BgfKHeFuY2_l_r2EsFXZ-20" target="BgfKHeFuY2_l_r2EsFXZ-18">
          <mxGeometry relative="1" as="geometry" />
        </mxCell>
        <mxCell id="BgfKHeFuY2_l_r2EsFXZ-20" value="2.1.1.1. Procesos y metodos de producción seleccionados" style="rounded=1;whiteSpace=wrap;html=1;fontStyle=1;strokeColor=#000000;fillColor=#FF99FF;" vertex="1" parent="1">
          <mxGeometry x="-1984.5" y="550" width="245" height="40" as="geometry" />
        </mxCell>
        <mxCell id="BgfKHeFuY2_l_r2EsFXZ-35" style="edgeStyle=orthogonalEdgeStyle;rounded=0;orthogonalLoop=1;jettySize=auto;html=1;entryX=0.5;entryY=0;entryDx=0;entryDy=0;" edge="1" parent="1" source="BgfKHeFuY2_l_r2EsFXZ-31" target="BgfKHeFuY2_l_r2EsFXZ-33">
          <mxGeometry relative="1" as="geometry" />
        </mxCell>
        <mxCell id="BgfKHeFuY2_l_r2EsFXZ-36" style="edgeStyle=orthogonalEdgeStyle;rounded=0;orthogonalLoop=1;jettySize=auto;html=1;entryX=0.5;entryY=0;entryDx=0;entryDy=0;" edge="1" parent="1" source="BgfKHeFuY2_l_r2EsFXZ-31" target="BgfKHeFuY2_l_r2EsFXZ-34">
          <mxGeometry relative="1" as="geometry" />
        </mxCell>
        <mxCell id="BgfKHeFuY2_l_r2EsFXZ-31" value="2.2.1.1. Usuario capacitado en Tecnomatix" style="rounded=1;whiteSpace=wrap;html=1;fontStyle=1;strokeColor=#000000;fillColor=#FF99FF;" vertex="1" parent="1">
          <mxGeometry x="-1548" y="470" width="250" height="40" as="geometry" />
        </mxCell>
        <mxCell id="BgfKHeFuY2_l_r2EsFXZ-33" value="2.2.1.1.1. Fuentes de Siemens consultadas" style="rounded=1;whiteSpace=wrap;html=1;fontStyle=1;strokeColor=#000000;fillColor=#FF99FF;" vertex="1" parent="1">
          <mxGeometry x="-1686" y="550" width="250" height="40" as="geometry" />
        </mxCell>
        <mxCell id="BgfKHeFuY2_l_r2EsFXZ-34" value="2.2.1.1.2. Fuentes adicionales consultadas" style="rounded=1;whiteSpace=wrap;html=1;fontStyle=1;strokeColor=#000000;fillColor=#FF99FF;" vertex="1" parent="1">
          <mxGeometry x="-1396" y="550" width="250" height="40" as="geometry" />
        </mxCell>
        <mxCell id="BgfKHeFuY2_l_r2EsFXZ-40" style="edgeStyle=orthogonalEdgeStyle;rounded=0;orthogonalLoop=1;jettySize=auto;html=1;entryX=0.5;entryY=0;entryDx=0;entryDy=0;" edge="1" parent="1" source="BgfKHeFuY2_l_r2EsFXZ-38" target="BgfKHeFuY2_l_r2EsFXZ-39">
          <mxGeometry relative="1" as="geometry" />
        </mxCell>
        <mxCell id="BgfKHeFuY2_l_r2EsFXZ-38" value="&lt;div&gt;&lt;span style=&quot;background-color: transparent; color: light-dark(rgb(0, 0, 0), rgb(255, 255, 255));&quot;&gt;2.3.1.1.&amp;nbsp;&lt;/span&gt;Usuario capacitado en Siemens NX&lt;/div&gt;" style="rounded=1;whiteSpace=wrap;html=1;fontStyle=1;strokeColor=#000000;fillColor=#FF99FF;" vertex="1" parent="1">
          <mxGeometry x="-1077" y="470" width="220" height="40" as="geometry" />
        </mxCell>
        <mxCell id="BgfKHeFuY2_l_r2EsFXZ-39" value="2.3.1.1.1. Fuentes otorgadas por el Ing. Ubaldo estudiadas" style="rounded=1;whiteSpace=wrap;html=1;fontStyle=1;strokeColor=#000000;fillColor=#FF99FF;" vertex="1" parent="1">
          <mxGeometry x="-1092" y="550" width="250" height="40" as="geometry" />
        </mxCell>
        <mxCell id="BgfKHeFuY2_l_r2EsFXZ-41" value="2.3.1.2.1. Comunicaciones utilizadas descritas" style="rounded=1;whiteSpace=wrap;html=1;fontStyle=1;strokeColor=#000000;fillColor=#FF99FF;" vertex="1" parent="1">
          <mxGeometry x="-770" y="550" width="182" height="40" as="geometry" />
        </mxCell>
        <mxCell id="BgfKHeFuY2_l_r2EsFXZ-75" style="edgeStyle=orthogonalEdgeStyle;rounded=0;orthogonalLoop=1;jettySize=auto;html=1;entryX=0.5;entryY=0;entryDx=0;entryDy=0;" edge="1" parent="1" source="BgfKHeFuY2_l_r2EsFXZ-46" target="BgfKHeFuY2_l_r2EsFXZ-47">
          <mxGeometry relative="1" as="geometry" />
        </mxCell>
        <mxCell id="BgfKHeFuY2_l_r2EsFXZ-49" style="edgeStyle=orthogonalEdgeStyle;rounded=0;orthogonalLoop=1;jettySize=auto;html=1;entryX=0.5;entryY=0;entryDx=0;entryDy=0;" edge="1" parent="1" source="BgfKHeFuY2_l_r2EsFXZ-47" target="BgfKHeFuY2_l_r2EsFXZ-48">
          <mxGeometry relative="1" as="geometry" />
        </mxCell>
        <mxCell id="BgfKHeFuY2_l_r2EsFXZ-47" value="&lt;div&gt;&lt;span style=&quot;background-color: transparent; color: light-dark(rgb(0, 0, 0), rgb(255, 255, 255));&quot;&gt;2.3.2.1.1.1.&amp;nbsp;&lt;/span&gt;Usuario capacitado en Studio 5000&lt;/div&gt;" style="rounded=1;whiteSpace=wrap;html=1;fontStyle=1;strokeColor=#000000;fillColor=#FF99FF;" vertex="1" parent="1">
          <mxGeometry x="-569" y="630" width="220" height="40" as="geometry" />
        </mxCell>
        <mxCell id="BgfKHeFuY2_l_r2EsFXZ-48" value="2.3.2.1.1.1.1. Fuentes otorgadas por el Ing. Ubaldo estudiadas" style="rounded=1;whiteSpace=wrap;html=1;fontStyle=1;strokeColor=#000000;fillColor=#FF99FF;" vertex="1" parent="1">
          <mxGeometry x="-565" y="710" width="212" height="40" as="geometry" />
        </mxCell>
        <mxCell id="BgfKHeFuY2_l_r2EsFXZ-72" style="edgeStyle=orthogonalEdgeStyle;rounded=0;orthogonalLoop=1;jettySize=auto;html=1;entryX=0.5;entryY=0;entryDx=0;entryDy=0;" edge="1" parent="1" source="BgfKHeFuY2_l_r2EsFXZ-57" target="BgfKHeFuY2_l_r2EsFXZ-58">
          <mxGeometry relative="1" as="geometry" />
        </mxCell>
        <mxCell id="BgfKHeFuY2_l_r2EsFXZ-73" style="edgeStyle=orthogonalEdgeStyle;rounded=0;orthogonalLoop=1;jettySize=auto;html=1;entryX=0.5;entryY=0;entryDx=0;entryDy=0;" edge="1" parent="1" source="BgfKHeFuY2_l_r2EsFXZ-57" target="BgfKHeFuY2_l_r2EsFXZ-61">
          <mxGeometry relative="1" as="geometry" />
        </mxCell>
        <mxCell id="BgfKHeFuY2_l_r2EsFXZ-57" value="2.4. Celda robotica diseñada&amp;nbsp;" style="rounded=1;whiteSpace=wrap;html=1;fontStyle=1;strokeColor=#000000;fillColor=#FFFF33;" vertex="1" parent="1">
          <mxGeometry x="-169" y="310" width="140" height="40" as="geometry" />
        </mxCell>
        <mxCell id="BgfKHeFuY2_l_r2EsFXZ-64" value="" style="edgeStyle=orthogonalEdgeStyle;rounded=0;orthogonalLoop=1;jettySize=auto;html=1;" edge="1" parent="1" source="BgfKHeFuY2_l_r2EsFXZ-58" target="BgfKHeFuY2_l_r2EsFXZ-63">
          <mxGeometry relative="1" as="geometry" />
        </mxCell>
        <mxCell id="BgfKHeFuY2_l_r2EsFXZ-58" value="2.4.1. Robotización justificada" style="rounded=1;whiteSpace=wrap;html=1;fontStyle=1;strokeColor=#000000;fillColor=#FF99FF;" vertex="1" parent="1">
          <mxGeometry x="-272" y="390" width="120" height="40" as="geometry" />
        </mxCell>
        <mxCell id="BgfKHeFuY2_l_r2EsFXZ-69" style="edgeStyle=orthogonalEdgeStyle;rounded=0;orthogonalLoop=1;jettySize=auto;html=1;entryX=0.5;entryY=0;entryDx=0;entryDy=0;" edge="1" parent="1" source="BgfKHeFuY2_l_r2EsFXZ-61" target="BgfKHeFuY2_l_r2EsFXZ-67">
          <mxGeometry relative="1" as="geometry" />
        </mxCell>
        <mxCell id="BgfKHeFuY2_l_r2EsFXZ-61" value="2.4.2. Modelado en RobotStudio realizado" style="rounded=1;whiteSpace=wrap;html=1;fontStyle=1;strokeColor=#000000;fillColor=#FF99FF;" vertex="1" parent="1">
          <mxGeometry x="-58" y="390" width="140" height="40" as="geometry" />
        </mxCell>
        <mxCell id="BgfKHeFuY2_l_r2EsFXZ-62" value="2.4.1.1.1. Riesgos identificados" style="rounded=1;whiteSpace=wrap;html=1;fontStyle=1;strokeColor=#000000;fillColor=#FF99FF;" vertex="1" parent="1">
          <mxGeometry x="-282.5" y="550" width="141" height="40" as="geometry" />
        </mxCell>
        <mxCell id="BgfKHeFuY2_l_r2EsFXZ-71" style="edgeStyle=orthogonalEdgeStyle;rounded=0;orthogonalLoop=1;jettySize=auto;html=1;entryX=0.5;entryY=0;entryDx=0;entryDy=0;" edge="1" parent="1" source="BgfKHeFuY2_l_r2EsFXZ-63" target="BgfKHeFuY2_l_r2EsFXZ-62">
          <mxGeometry relative="1" as="geometry" />
        </mxCell>
        <mxCell id="BgfKHeFuY2_l_r2EsFXZ-63" value="2.4.1.1. Parametros de seguridad establecidos" style="rounded=1;whiteSpace=wrap;html=1;fontStyle=1;strokeColor=#000000;fillColor=#FF99FF;" vertex="1" parent="1">
          <mxGeometry x="-302" y="470" width="180" height="40" as="geometry" />
        </mxCell>
        <mxCell id="BgfKHeFuY2_l_r2EsFXZ-70" style="edgeStyle=orthogonalEdgeStyle;rounded=0;orthogonalLoop=1;jettySize=auto;html=1;entryX=0.5;entryY=0;entryDx=0;entryDy=0;" edge="1" parent="1" source="BgfKHeFuY2_l_r2EsFXZ-67" target="BgfKHeFuY2_l_r2EsFXZ-68">
          <mxGeometry relative="1" as="geometry" />
        </mxCell>
        <mxCell id="BgfKHeFuY2_l_r2EsFXZ-67" value="&lt;div&gt;2.4.2.1. Usuario capacitado en Robot Studio&lt;/div&gt;" style="rounded=1;whiteSpace=wrap;html=1;fontStyle=1;strokeColor=#000000;fillColor=#FF99FF;" vertex="1" parent="1">
          <mxGeometry x="-76" y="470" width="176" height="40" as="geometry" />
        </mxCell>
        <mxCell id="BgfKHeFuY2_l_r2EsFXZ-68" value="2.4.2.1.1. Fuentes otorgadas por el Ing. Ricardo consultadas" style="rounded=1;whiteSpace=wrap;html=1;fontStyle=1;strokeColor=#000000;fillColor=#FF99FF;" vertex="1" parent="1">
          <mxGeometry x="-93.5" y="550" width="211" height="40" as="geometry" />
        </mxCell>
        <mxCell id="BgfKHeFuY2_l_r2EsFXZ-76" style="edgeStyle=orthogonalEdgeStyle;rounded=0;orthogonalLoop=1;jettySize=auto;html=1;entryX=0.5;entryY=0;entryDx=0;entryDy=0;" edge="1" parent="1" source="BgfKHeFuY2_l_r2EsFXZ-46" target="BgfKHeFuY2_l_r2EsFXZ-47">
          <mxGeometry relative="1" as="geometry" />
        </mxCell>
        <mxCell id="BgfKHeFuY2_l_r2EsFXZ-106" style="edgeStyle=orthogonalEdgeStyle;rounded=0;orthogonalLoop=1;jettySize=auto;html=1;entryX=0.5;entryY=0;entryDx=0;entryDy=0;" edge="1" parent="1" source="BgfKHeFuY2_l_r2EsFXZ-74" target="BgfKHeFuY2_l_r2EsFXZ-37">
          <mxGeometry relative="1" as="geometry" />
        </mxCell>
        <mxCell id="BgfKHeFuY2_l_r2EsFXZ-74" value="2.3.2&lt;span style=&quot;background-color: transparent; color: light-dark(rgb(0, 0, 0), rgb(255, 255, 255));&quot;&gt;. Comunicación con el sistema MES propuesta&lt;/span&gt;" style="rounded=1;whiteSpace=wrap;html=1;fontStyle=1;strokeColor=#000000;fillColor=light-dark(#ff99ff, #ff70ff);" vertex="1" parent="1">
          <mxGeometry x="-564" y="390" width="210" height="40" as="geometry" />
        </mxCell>
        <mxCell id="BgfKHeFuY2_l_r2EsFXZ-82" value="1.1.2. Roles repartidos" style="rounded=1;whiteSpace=wrap;html=1;fontStyle=1;strokeColor=#000000;fillColor=#FF99FF;" vertex="1" parent="1">
          <mxGeometry x="-2316" y="390" width="140" height="40" as="geometry" />
        </mxCell>
        <mxCell id="BgfKHeFuY2_l_r2EsFXZ-87" style="edgeStyle=orthogonalEdgeStyle;rounded=0;orthogonalLoop=1;jettySize=auto;html=1;entryX=0.5;entryY=0;entryDx=0;entryDy=0;" edge="1" parent="1" source="BgfKHeFuY2_l_r2EsFXZ-84" target="BgfKHeFuY2_l_r2EsFXZ-82">
          <mxGeometry relative="1" as="geometry" />
        </mxCell>
        <mxCell id="BgfKHeFuY2_l_r2EsFXZ-110" style="edgeStyle=orthogonalEdgeStyle;rounded=0;orthogonalLoop=1;jettySize=auto;html=1;entryX=0.5;entryY=0;entryDx=0;entryDy=0;" edge="1" parent="1" source="BgfKHeFuY2_l_r2EsFXZ-84" target="7QkryRCTY_poe_iIpccH-25">
          <mxGeometry relative="1" as="geometry">
            <Array as="points">
              <mxPoint x="-2246" y="370" />
              <mxPoint x="-2076" y="370" />
            </Array>
          </mxGeometry>
        </mxCell>
        <mxCell id="BgfKHeFuY2_l_r2EsFXZ-111" style="edgeStyle=orthogonalEdgeStyle;rounded=0;orthogonalLoop=1;jettySize=auto;html=1;entryX=0.5;entryY=0;entryDx=0;entryDy=0;" edge="1" parent="1" source="BgfKHeFuY2_l_r2EsFXZ-84" target="7QkryRCTY_poe_iIpccH-23">
          <mxGeometry relative="1" as="geometry">
            <Array as="points">
              <mxPoint x="-2246" y="370" />
              <mxPoint x="-2406" y="370" />
            </Array>
          </mxGeometry>
        </mxCell>
        <mxCell id="BgfKHeFuY2_l_r2EsFXZ-84" value="1.1. Entregables delimitados" style="rounded=1;whiteSpace=wrap;html=1;fontStyle=1;strokeColor=#000000;fillColor=#FF99FF;" vertex="1" parent="1">
          <mxGeometry x="-2300" y="310" width="108" height="40" as="geometry" />
        </mxCell>
        <mxCell id="BgfKHeFuY2_l_r2EsFXZ-93" style="edgeStyle=orthogonalEdgeStyle;rounded=0;orthogonalLoop=1;jettySize=auto;html=1;entryX=0.5;entryY=0;entryDx=0;entryDy=0;" edge="1" parent="1" source="BgfKHeFuY2_l_r2EsFXZ-89" target="HwzYQzNSdAflET0h8osi-17">
          <mxGeometry relative="1" as="geometry" />
        </mxCell>
        <mxCell id="BgfKHeFuY2_l_r2EsFXZ-98" style="edgeStyle=orthogonalEdgeStyle;rounded=0;orthogonalLoop=1;jettySize=auto;html=1;entryX=0.5;entryY=0;entryDx=0;entryDy=0;" edge="1" parent="1" source="BgfKHeFuY2_l_r2EsFXZ-89" target="K9VHAz8Z8y00O2l8GgqR-8">
          <mxGeometry relative="1" as="geometry" />
        </mxCell>
        <mxCell id="BgfKHeFuY2_l_r2EsFXZ-89" value="3.1.1. Factores economicos calculados" style="rounded=1;whiteSpace=wrap;html=1;fontStyle=1;strokeColor=#000000;fillColor=#FF99FF;" vertex="1" parent="1">
          <mxGeometry x="195.5" y="390" width="180" height="40" as="geometry" />
        </mxCell>
        <mxCell id="BgfKHeFuY2_l_r2EsFXZ-103" value="" style="edgeStyle=orthogonalEdgeStyle;rounded=0;orthogonalLoop=1;jettySize=auto;html=1;entryX=0.5;entryY=0;entryDx=0;entryDy=0;" edge="1" parent="1" source="BgfKHeFuY2_l_r2EsFXZ-37" target="BgfKHeFuY2_l_r2EsFXZ-46">
          <mxGeometry relative="1" as="geometry">
            <mxPoint x="-344" y="555" as="sourcePoint" />
            <mxPoint x="-459" y="710" as="targetPoint" />
          </mxGeometry>
        </mxCell>
        <mxCell id="BgfKHeFuY2_l_r2EsFXZ-46" value="2.3.2.1.1. Controladores PLC&lt;span style=&quot;white-space: pre;&quot;&gt;&#x9;&lt;/span&gt;implementados" style="rounded=1;whiteSpace=wrap;html=1;fontStyle=1;strokeColor=#000000;fillColor=#FF99FF;" vertex="1" parent="1">
          <mxGeometry x="-533.5" y="550" width="149" height="40" as="geometry" />
        </mxCell>
        <mxCell id="BgfKHeFuY2_l_r2EsFXZ-37" value="2.3.2.1. Rutinas grafcet programadas en Studio 5000" style="rounded=1;whiteSpace=wrap;html=1;fontStyle=1;strokeColor=#000000;fillColor=#FF99FF;" vertex="1" parent="1">
          <mxGeometry x="-547" y="470" width="176" height="40" as="geometry" />
        </mxCell>
        <mxCell id="BgfKHeFuY2_l_r2EsFXZ-118" style="edgeStyle=orthogonalEdgeStyle;rounded=0;orthogonalLoop=1;jettySize=auto;html=1;entryX=0.5;entryY=0;entryDx=0;entryDy=0;" edge="1" parent="1" source="BgfKHeFuY2_l_r2EsFXZ-9" target="BgfKHeFuY2_l_r2EsFXZ-57">
          <mxGeometry relative="1" as="geometry">
            <Array as="points">
              <mxPoint x="-943" y="290" />
              <mxPoint x="-99" y="290" />
            </Array>
          </mxGeometry>
        </mxCell>
      </root>
    </mxGraphModel>
  </diagram>
</mxfile>
